<svg fill="none" height="300" viewBox="0 0 24 24" width="300" xmlns="http://www.w3.org/2000/svg" version="1.1" xmlns:xlink="http://www.w3.org/1999/xlink" xmlns:svgjs="http://svgjs.dev/svgjs"><g width="100%" height="100%" transform="matrix(1,0,0,1,0,0)"><g clip-rule="evenodd" fill="rgb(0,0,0)" fill-rule="evenodd"><path d="m6 4c-1.10457 0-2 .89543-2 2v12c0 1.1046.89543 2 2 2h12c1.1046 0 2-.8954 2-2v-9c0-1.10457-.8954-2-2-2h-5c-.9443 0-1.8334-.44458-2.4-1.2l-1.05-1.4c-.18885-.25181-.48524-.4-.8-.4zm-4 2c0-2.20914 1.79086-4 4-4h2.75c.94427 0 1.8334.44458 2.4 1.2l1.05 1.4c.1889.25181.4852.4.8.4h5c2.2091 0 4 1.79086 4 4v9c0 2.2091-1.7909 4-4 4h-12c-2.20914 0-4-1.7909-4-4z" fill="#ffffff" fill-opacity="1" data-original-color="#000000ff" stroke="none" stroke-opacity="1"/><path d="m11.2929 10.2929c.3905-.39053 1.0237-.39053 1.4142 0l3 3c.3905.3905.3905 1.0237 0 1.4142s-1.0237.3905-1.4142 0l-1.2929-1.2929v3.5858c0 .5523-.4477 1-1 1s-1-.4477-1-1v-3.5858l-1.29289 1.2929c-.39053.3905-1.02369.3905-1.41422 0-.39052-.3905-.39052-1.0237 0-1.4142z" fill="#ffffff" fill-opacity="1" data-original-color="#000000ff" stroke="none" stroke-opacity="1"/></g></g></svg>